<?xml version="1.0" encoding="UTF-8"?>
<!DOCTYPE svg PUBLIC "-//W3C//DTD SVG 1.1//EN" "http://www.w3.org/Graphics/SVG/1.1/DTD/svg11.dtd">
<!-- Creator: CorelDRAW -->
<svg xmlns="http://www.w3.org/2000/svg" xml:space="preserve" width="210mm" height="148mm" version="1.1" style="shape-rendering:geometricPrecision; text-rendering:geometricPrecision; image-rendering:optimizeQuality; fill-rule:evenodd; clip-rule:evenodd"
viewBox="0 0 21000 14800"
 xmlns:xlink="http://www.w3.org/1999/xlink"
 xmlns:xodm="http://www.corel.com/coreldraw/odm/2003">
 <defs>
  <style type="text/css">
   <![CDATA[
    .fil0 {fill:white}
   ]]>
  </style>
 </defs>
 <g id="Camada_x0020_1">
  <metadata id="CorelCorpID_0Corel-Layer"/>
  <path class="fil0" d="M8371.94 6282.1c-585.82,-1182.47 -1364.68,-1913.64 -2175.91,-2954.48 -457.08,-586.47 -595.76,-1222.4 -374.79,-1692.83 223.39,-475.56 1052.48,-991.37 1726.78,-966.88 476.12,17.3 875.41,279.01 1215.89,628.62 2.27,2.31 -765.6,-476.93 -1418.87,-308.06 -600.57,155.28 -1161.41,489.98 -1314.92,1213.55 -176.75,833.05 1825.03,2462.18 2341.82,4080.08z"/>
  <path class="fil0" d="M11618.19 3106.61c73.52,-505.22 -136.12,-1548.65 -979.89,-1758.75 -938.06,-233.61 -1675.37,-31.04 -1870.59,-50.72 -28.01,-2.79 -59.86,-43.81 -60.02,-59.21 158.4,-89.29 788.52,-222.83 1447.53,-238.11 1231.46,-28.53 1947.1,1229.56 1462.97,2106.79z"/>
  <path class="fil0" d="M10193.38 6836.02c216.88,-1068.08 426.61,-3054.67 1622.17,-3988.93 628.02,-490.72 1455.17,-405.88 2082.46,32.62 793.85,554.85 1249.69,1693.27 1444.87,2494.72 344.68,499.28 1212.21,1975.79 793.93,2835.28 -480.05,986.97 -1828.27,881.32 -2712.13,841.38 -976.22,-44.05 -2226.87,-401.87 -2278.37,-469.94 131.89,60.02 665.97,165.52 1197.55,264.42 735.97,136.93 1839.18,164.3 2571.72,-22.31 724.09,-184.51 1095.28,-758.69 1016.67,-1275.8 -160.3,-1053.94 -930.95,-2004.57 -962.03,-2093.21 -273.51,-779.46 -297.52,-1316.33 -853.75,-1996.89 -522.6,-639.41 -1240.99,-857.27 -1826.73,-621.59 -578.79,232.89 -1109.19,999.38 -1451.66,1871.68 -402.36,1024.84 -571.95,2154.89 -644.7,2128.57z"/>
  <path class="fil0" d="M7889.47 8178.99c-698.79,-9.25 -2331.92,46.93 -3504.12,-371.6 -1117.36,-398.93 -1651.73,-1276.36 -1235.14,-2597.5 322.34,-1022.3 1152.28,-996.59 1379.03,-1468.15 572.52,-1190.75 1358.28,-1108.34 1374.25,-1210.88 -1345.8,3.47 -983.17,925.73 -2163.25,1527.8 -1578.65,805.45 -1358.37,2847.81 -118.19,3815.1 817.58,637.67 3313.11,737.71 4267.42,305.23z"/>
  <path class="fil0" d="M4579.8 8270.9c-314.17,534.01 -500.94,1148.32 -154.2,1993.58 356.98,870.28 1701.68,1427.04 2452.29,2301.36 742.96,865.35 1208.01,1189.71 2351.96,931.88 1016.51,-229.17 569.73,-681.89 1267.67,-1397.37 433.77,-444.72 -223.06,-2845.63 -465.9,-3363.14 -35.16,-74.9 510.89,1655.28 402.65,2567.51 -81.69,688.4 -467.88,921.29 -645.03,1431.49 -239.8,690.5 -1463.9,688.4 -2016.13,277.99 -366.15,-272.09 -582.99,-690.14 -1227.06,-1222.6 -471.55,-389.83 -1503.59,-1111.05 -1785.22,-1570.04 -584.93,-953.18 -17.42,-1914.97 -181.03,-1950.66z"/>
  <path class="fil0" d="M10527.39 12515.08c398.89,715.6 640.71,1148.4 1486.09,1171.84 397.03,10.99 938.06,-219.51 938.06,-219.51 0,0 981.51,-74.98 1380.97,-282.24 811.06,-421.07 1496.72,-1902.64 1441.38,-2990.21 -28.33,-556.07 -363.27,-1020.07 -853.18,-1250.77 -6.87,-3.24 617.26,578.7 633.47,1357.8 15.52,746.16 -413.19,1787.21 -905.97,2316.68 -403.69,433.69 -1083.73,595.32 -1800.99,644.31 -107.79,7.35 -888.67,265.18 -1296.36,164.38 -559.59,-138.32 -726.11,-625.88 -1023.47,-912.28z"/>
  <path class="fil0" d="M8975.42 7460.12c156.09,266.35 -1307.08,582.42 -1176.73,939.23 177.64,486.39 1387.43,-693.33 1614.3,206.74 22.79,90.5 199.74,874.45 425.92,829.18 242.47,-48.55 23.32,-711.08 24.01,-908.12 1.98,-540.83 1512.72,394.36 1535.08,46.65 34.43,-536.31 -1197.59,-431.18 -1572.99,-1056.73 -3.12,-5.22 -584.65,-725.55 -780.96,-962.52 -273.75,-330.45 -521.64,-284.74 -612.49,-194.16 -141.31,140.81 234.06,571.18 543.86,1099.73z"/>
  <path class="fil0" d="M9276.82 7284.83c27.85,-8.61 237.98,-63.26 443.95,-116.93 342.99,-89.37 1462.32,-755.58 1751.47,-968.26 567.76,-417.68 1217.6,377.83 282.2,859.94 -323.26,166.6 -998.53,545.03 -1315.77,652.14 -233.77,78.9 -428.59,270.28 -572.07,265.79 -238.51,-7.52 -373.43,-302.81 -589.78,-692.68z"/>
  <ellipse class="fil0" cx="11681.85" cy="6034.86" rx="227.47" ry="187.54"/>
  <ellipse class="fil0" cx="12069.22" cy="6022.57" rx="227.47" ry="187.54"/>
  <ellipse class="fil0" cx="11903.18" cy="5822.74" rx="227.47" ry="187.54"/>
  <ellipse class="fil0" cx="12247.5" cy="6228.54" rx="227.47" ry="187.54"/>
  <ellipse class="fil0" cx="12020.03" cy="6837.28" rx="227.47" ry="187.54"/>
  <ellipse class="fil0" cx="12302.87" cy="6569.83" rx="227.47" ry="187.54"/>
  <path class="fil0" d="M14148.6 6305.89c12.59,1.02 -709.16,493 -1717.49,875.17 -754.85,286.13 -1442.73,391.79 -1696.82,429.85 704.92,4.3 2667.04,-539.44 3414.31,-1305.02z"/>
  <path class="fil0" d="M10628.96 1805.62c6.04,-11.1 127.37,954.6 74.06,1918.78 -47.9,867.14 -271.14,1743.48 -265.73,1731.41 289.82,-642.66 588.45,-2656.66 191.67,-3650.19z"/>
  <path class="fil0" d="M9134.75 8566.12c-228.42,626.88 -874.17,1899.44 -1360.8,2489.59 -196.83,238.68 -565.56,596.87 -725.01,757.12 173.32,-96.86 805.38,-642.93 1167.42,-1275.2 109.58,-191.41 836.53,-1423.54 918.39,-1971.51z"/>
  <path class="fil0" d="M14913.32 6603.29c-428.02,381.48 -1507.97,894.91 -2249.14,1008.67 -1019.11,156.41 -1863.05,177.49 -1850.11,177.51 339.6,1.96 1590.7,9.25 2414.72,-246.01 699.44,-216.69 1297.53,-543.68 1684.53,-940.17z"/>
  <path class="fil0" d="M15432.24 7370.64c-243.48,193.99 -708.48,335.27 -1249.54,431.33 -436.11,77.42 -924.42,164.51 -1382.12,200.83 -980.8,77.78 -1830.1,45.56 -1785.81,51.33 473.85,61.8 1278.83,68.67 2142.15,-19.62 917.84,-93.97 1895.02,-322 2275.32,-663.87z"/>
  <path class="fil0" d="M15808.75 7888.41c-665.13,482.91 -1646.36,667.82 -2528.24,669.38 -1192.82,2.13 -2223.01,-294.31 -2221.64,-294.03 337.63,61.66 1230.84,213.65 1935.39,220.66 911.1,9.09 1938.97,-206.3 2814.49,-596.01z"/>
  <path class="fil0" d="M7577.85 12362.34c1.05,12.62 882.21,-1156.61 1221.18,-2062.8 304.81,-814.92 538.09,-1735.8 538.17,-1722.6 3.02,358.02 -194.29,1049.58 -459.66,1767.41 -258.1,698.17 -924.04,1647.27 -1299.69,2017.99z"/>
  <path class="fil0" d="M7973.22 12803.89c327.07,-441.87 1002.97,-1361.08 1217.33,-2180.37 200.86,-767.47 386.45,-2123.71 386.53,-2110.83 2.6,340.42 -132.94,1508.95 -385.36,2335.76 -214.25,701.77 -825.77,1523.04 -1218.5,1955.44z"/>
  <path class="fil0" d="M8628.71 13063.14c200.76,-254.68 549.87,-911.12 762.72,-1491.11 158.67,-432.37 213.7,-842.56 224.45,-904.05 75.45,-432.82 67.68,-1840.05 68.65,-1827.06 24.99,339.5 125.76,1553.2 -72.59,2394.87 -168.38,714.41 -614.76,1412.97 -983.23,1827.35z"/>
  <path class="fil0" d="M9128.98 13251.99c546.04,-716.8 999.16,-1416.55 976.94,-2286.84 -30.53,-1195.08 -299.49,-2226.96 -299.21,-2225.59 62.41,338.17 195.7,1233.39 225.29,1938.98 41.34,986.5 -410.91,1763.98 -903.02,2573.45z"/>
  <path class="fil0" d="M11404.91 12369.05c8.65,9.21 -117.94,-955.81 -413.12,-1875.23 -265.42,-826.92 -702.82,-1618.42 -694.54,-1608.12 442.78,548.6 1240.55,2421.81 1107.66,3483.35z"/>
  <path class="fil0" d="M10416.23 6906.54c22.64,-310.48 234.28,-747.97 530.74,-1210.65 238.97,-372.94 506.24,-790.79 790.05,-1151.71 608.2,-773.37 1208.02,-1375.51 1173.73,-1346.89 -366.85,306.23 -917.98,893 -1438.76,1587.18 -553.61,738.11 -1048.96,1610.75 -1055.76,2122.07z"/>
  <path class="fil0" d="M8342.77 1705.9c211.21,228.71 385.97,682.19 521.17,1214.81 108.97,429.32 231.38,909.99 300.93,1363.84 148.99,972.53 178.69,1821.92 181.22,1777.33 27.14,-477.09 -24.62,-1280.44 -175.54,-2135.03 -160.55,-908.57 -459.13,-1866.56 -827.78,-2220.95z"/>
  <path class="fil0" d="M7921.46 7629.49c-188.1,-285.73 -625.57,-592.01 -1157.92,-877.01 -429.09,-229.71 -909.41,-487.34 -1375.09,-681.49 -997.89,-416.01 -1895.98,-672.22 -1847.75,-663.14 516.03,97.18 1359.18,364.75 2230.78,751.63 926.61,411.42 1869.45,983.13 2149.98,1470.01z"/>
  <path class="fil0" d="M9000.33 6803.28c-0.04,-323.95 -201.53,-977.19 -393.63,-1562.92 -143.26,-436.67 -419.25,-856.68 -448.91,-911.36 -208.88,-385.23 -1088.56,-1405.65 -1051.92,-1434.98 230.07,249.81 1026.92,1067.54 1392.65,1848.93 310.41,663.22 534.62,1507.25 501.81,2060.33z"/>
  <path class="fil0" d="M9134.3 6603.83c46,-320.67 -60.61,-995.92 -167.51,-1603 -79.75,-452.6 -293.26,-907.57 -314.84,-965.91 -152.01,-411.01 -877.75,-1546.09 -837.31,-1569.92 192.24,279.98 864.78,1202.65 1115.75,2028.09 213.01,700.6 314.99,1567.93 203.91,2110.74z"/>
  <path class="fil0" d="M9404.94 1606.7c65.04,194.05 223.23,1981.74 234.31,2358.11 16.2,551.62 -27.65,2677.49 -123.72,2700.81 -24.5,-138.39 92.11,-992.46 69.92,-2002.43 -32.98,-1501.2 -175.25,-3038.3 -180.51,-3056.49z"/>
  <path class="fil0" d="M7925.58 7894.72c-351.99,-70.29 -3073.97,-362.38 -3671.04,-315.82 544.14,-181.19 3358.14,208.4 3671.04,315.82z"/>
  <path class="fil0" d="M10035.42 1398.18c391.17,2691.88 37.03,4536.36 -265.5,5466.66 61.92,-400.26 187.01,-783.14 231.07,-1185.74 195.74,-1428.45 135.2,-2833.14 34.43,-4280.92z"/>
  <path class="fil0" d="M5788.1 10555.41c146.59,-475.52 2052.83,-1545.74 2523.7,-1805.43 -631.78,418.93 -1263.55,837.82 -1895.33,1256.76l-628.37 548.67z"/>
  <path class="fil0" d="M8572.74 8911.61c-163.98,-49.92 -2205.41,2231.56 -2175.83,2259.93 31.65,30.36 798.9,-810.22 1221.47,-1272.03 444.81,-486.19 860.42,-949.38 954.36,-987.9z"/>
  <path class="fil0" d="M4957.87 10045.38c-66.81,-86.38 2239.2,-1461.36 2849.79,-1500.24 6.95,-0.44 -837.98,338.22 -1573.75,740.18 -670.86,366.51 -1070.35,613.02 -1276.04,760.06z"/>
  <path class="fil0" d="M3782.39 4589.99c494.19,132.74 952.53,328.32 1820.31,815.4 1227.01,688.72 2648.95,1860.68 2953.54,2229.7 32.91,39.85 -980.94,-855.89 -2082.86,-1564.3 -1124.1,-722.67 -2395.78,-1344.83 -2690.99,-1480.8z"/>
  <path class="fil0" d="M4881.28 4220.25c178.08,28.9 937.21,489.34 1681.83,1170.87 767.13,702.06 1519.84,1627.35 1657.67,1751.72 6.22,5.62 -895.79,-1250.05 -1828.8,-2055.62 -657.4,-567.59 -1428.57,-930.06 -1510.7,-866.97z"/>
  <path class="fil0" d="M3295.68 6496.67c312.63,85.45 1527.11,168.02 2620.74,470.47 851.57,235.52 1588.92,606.63 1934.37,744.02 23,9.13 -981.07,-602.27 -2052.75,-874.57 -1074.35,-273.02 -2400.87,-346.46 -2502.36,-339.92z"/>
  <path class="fil0" d="M12214.91 12324.08c9.75,8.03 -239.21,-932.88 -649.54,-1807.01 -369,-786.18 -904.03,-1515.24 -894.5,-1506.08 509.3,487.46 1540.08,2243.27 1544.04,3313.09z"/>
  <path class="fil0" d="M13807.25 11985.54c-490.81,-81.95 -1805.4,-1828.66 -2125.48,-2260.75 499.34,570.35 998.65,1140.7 1498,1711.05l627.48 549.7z"/>
  <path class="fil0" d="M11440.36 9156.76c-12.64,-0.18 769.43,579.18 1635.83,1005.6 779.18,383.54 1652.37,618.79 1639.2,617.59 -702.2,-62.63 -2603.8,-790.14 -3275.03,-1623.19z"/>
 </g>
</svg>
